<?xml version="1.0" encoding="UTF-8"?>
<!DOCTYPE svg PUBLIC "-//W3C//DTD SVG 1.1//EN" "http://www.w3.org/Graphics/SVG/1.1/DTD/svg11.dtd">
<svg version="1.1" xmlns="http://www.w3.org/2000/svg" xmlns:xlink="http://www.w3.org/1999/xlink" x="0" y="0" width="217.339" height="275.983" viewBox="0, 0, 217.339, 275.983">
  <defs>
    <radialGradient id="Gradient_1" gradientUnits="userSpaceOnUse" cx="167.242" cy="228.044" r="93.003">
      <stop offset="0" stop-color="#FFFFFF"/>
      <stop offset="1" stop-color="#F5A582"/>
    </radialGradient>
    <linearGradient id="Gradient_2" gradientUnits="userSpaceOnUse" x1="194.211" y1="79.816" x2="194.211" y2="133.677">
      <stop offset="0" stop-color="#AAD400"/>
      <stop offset="1" stop-color="#006E10"/>
    </linearGradient>
  </defs>
  <g id="Layer_1" transform="translate(-49.65, -66.938)">
    <path d="M149.358,186.065 C148.75,188.013 145.619,188.77 142.356,187.755 C139.097,186.741 136.948,184.341 137.556,182.393 C138.16,180.445 141.295,179.685 144.551,180.7 C147.814,181.714 149.963,184.118 149.358,186.065 z M232.712,163.475 C229.34,160.739 214.007,154.169 209.749,153.296 C160.154,143.128 189.019,177.041 189.019,177.041 L188.583,181.725 C202.694,219.285 188.791,222.19 188.791,222.19 C193.69,199.945 180.171,176.027 146.605,168.328 C136.159,165.935 125.028,166.865 114.753,170.382 C120.96,169.897 126.11,171.778 127.937,175.776 C130.726,181.884 124.707,190.618 114.484,195.288 C104.265,199.957 93.717,198.791 90.925,192.683 C89.769,190.152 90.129,187.168 91.674,184.21 C90.479,185.337 89.327,186.507 88.238,187.727 C75.117,202.432 70.303,225.765 72.516,244.988 C76.224,277.286 101.151,301.303 127.591,317.422 C134.852,321.849 142.398,325.728 150.041,329.447 C157.333,333.002 159.532,336.736 159.532,336.736 C159.532,336.736 165,334.431 163.07,337.399 C181.631,330.616 200.238,323.442 216.396,312.116 C240.04,295.546 257.622,269.689 261.645,241.099 C265.671,212.509 255.126,181.672 232.712,163.475" fill="url(#Gradient_1)" id="path20"/>
    <path d="M171.113,124.385 C170.866,128.118 171.256,132.073 172.44,135.636 C179.373,136.544 186.364,134.664 192.227,130.902 C209.494,119.826 217.776,99.678 218.986,79.813 C214.16,80.834 209.419,82.278 204.922,84.32 C194.903,88.869 185.928,95.952 179.509,104.93 C175.493,110.546 171.581,117.329 171.113,124.385" fill="url(#Gradient_2)" id="path24"/>
    <path d="M167.583,120.221 C168.053,113.166 171.967,106.381 175.983,100.764 C182.398,91.787 191.374,84.704 201.396,80.157 C205.893,78.115 210.632,76.671 215.456,75.65 C214.25,95.516 205.968,115.663 188.702,126.738 C182.835,130.499 175.844,132.377 168.91,131.474 C167.726,127.909 167.338,123.953 167.583,120.221 z M266.765,222.637 C264.691,193.659 249.016,165.108 222.486,151.81 C215.762,148.437 208.554,145.982 201.143,144.666 C197.475,144.011 193.75,143.577 190.025,143.424 C187.065,143.307 184.02,143.588 181.096,143.008 C178.313,142.456 176.022,141.282 174.155,139.681 C189.759,138.877 199.972,127.776 208.401,114.595 C216.637,101.713 221.624,87.156 221.681,71.986 C221.688,69.14 221.074,66.595 218.558,66.976 C196.71,70.285 176.616,82.754 165.58,102.162 C162.005,108.445 159.511,115.219 159.493,122.512 C159.49,124.533 159.653,126.578 159.977,128.599 C154.537,125.604 151.165,120.676 149.254,114.642 C147.824,110.113 147.155,105.349 145.458,100.906 C141.046,89.34 130.558,84.423 118.725,83.509 C113.581,83.11 122.859,92.619 127.975,93.014 C138.058,93.793 138.754,97.511 141.443,107.401 C143.333,114.357 142,120.865 146.244,126.884 C150.023,132.242 155.537,135.956 161.727,137.995 C162.193,138.148 162.656,138.28 163.122,138.411 C165.047,142.118 167.779,145.367 171.426,147.7 C175.83,150.515 180.968,151.34 186.101,151.379 C193.448,151.436 200.585,152.315 207.64,154.453 C221.497,158.655 233.704,167.175 242.452,178.72 C259.223,200.849 263.065,230.595 254.338,256.694 C244.989,284.643 223.343,305.832 197.497,318.992 C190.363,322.623 182.992,325.754 175.535,328.655 C171.952,330.048 168.348,331.393 164.741,332.719 C162.08,333.697 159.568,335.29 156.878,334.578 C149.169,332.54 141.431,328.934 134.07,325.881 C126.901,322.911 119.85,319.616 113.086,315.816 C88.108,301.789 67.985,279.059 60.489,251.041 C53.438,224.668 59.365,194.723 77.822,174.223 C95.835,154.215 125.343,146.043 150.933,154.955 C174.806,163.269 189.019,177.041 189.033,199.813 C189.047,222.759 192.457,213.368 194.566,208.667 C205.396,184.542 196.01,181.147 177.605,162.525 C157.892,142.584 126.403,138.664 100.905,148.768 C73.93,159.452 55.743,184.672 50.947,212.956 C45.991,242.188 55.551,271.334 74.183,294.004 C83.828,305.741 95.821,315.31 109.041,322.732 C116.416,326.875 124.126,330.375 131.939,333.606 C139.563,336.759 147.447,340.271 155.384,342.533 C157.832,343.23 160.045,342.936 162.414,342.07 C166.452,340.602 170.483,339.124 174.5,337.597 C182.412,334.584 190.275,331.383 197.909,327.704 C211.962,320.936 225.08,312.303 236.002,301.093 C256.149,280.41 268.854,251.811 266.765,222.637" fill="#2F2118" id="path28"/>
  </g>
</svg>
