<?xml version="1.0" encoding="UTF-8"?>
<!DOCTYPE svg PUBLIC "-//W3C//DTD SVG 1.1//EN" "http://www.w3.org/Graphics/SVG/1.1/DTD/svg11.dtd">
<svg version="1.1" xmlns="http://www.w3.org/2000/svg" xmlns:xlink="http://www.w3.org/1999/xlink" x="0" y="0" width="896.7" height="277.07" viewBox="0, 0, 896.7, 277.07">
  <defs>
    <radialGradient id="Gradient_1" gradientUnits="userSpaceOnUse" cx="167.242" cy="228.044" r="93.003">
      <stop offset="0" stop-color="#FFFFFF"/>
      <stop offset="1" stop-color="#F5A582"/>
    </radialGradient>
    <linearGradient id="Gradient_2" gradientUnits="userSpaceOnUse" x1="194.211" y1="79.816" x2="194.211" y2="133.677">
      <stop offset="0" stop-color="#AAD400"/>
      <stop offset="1" stop-color="#006E10"/>
    </linearGradient>
  </defs>
  <g id="Layer_1" transform="translate(-49.65, -66.938)">
    <path d="M149.358,186.065 C148.75,188.013 145.619,188.77 142.356,187.755 C139.097,186.741 136.948,184.341 137.556,182.393 C138.16,180.445 141.295,179.685 144.551,180.7 C147.814,181.714 149.963,184.118 149.358,186.065 z M232.712,163.475 C229.34,160.739 214.007,154.169 209.749,153.296 C160.154,143.128 189.019,177.041 189.019,177.041 L188.583,181.725 C202.694,219.285 188.791,222.19 188.791,222.19 C193.69,199.945 180.171,176.027 146.605,168.328 C136.159,165.935 125.028,166.865 114.753,170.382 C120.96,169.897 126.11,171.778 127.937,175.776 C130.726,181.884 124.707,190.618 114.484,195.288 C104.265,199.957 93.717,198.791 90.925,192.683 C89.769,190.152 90.129,187.168 91.674,184.21 C90.479,185.337 89.327,186.507 88.238,187.727 C75.117,202.432 70.303,225.765 72.516,244.988 C76.224,277.286 101.151,301.303 127.591,317.422 C134.852,321.849 142.398,325.728 150.041,329.447 C157.333,333.002 159.532,336.736 159.532,336.736 C159.532,336.736 165,334.431 163.07,337.399 C181.631,330.616 200.238,323.442 216.396,312.116 C240.04,295.546 257.622,269.689 261.645,241.099 C265.671,212.509 255.126,181.672 232.712,163.475" fill="url(#Gradient_1)" id="path20"/>
    <path d="M171.113,124.385 C170.866,128.118 171.256,132.073 172.44,135.636 C179.373,136.544 186.364,134.664 192.227,130.902 C209.494,119.826 217.776,99.678 218.986,79.813 C214.16,80.834 209.419,82.278 204.922,84.32 C194.903,88.869 185.928,95.952 179.509,104.93 C175.493,110.546 171.581,117.329 171.113,124.385" fill="url(#Gradient_2)" id="path24"/>
    <path d="M167.583,120.221 C168.053,113.166 171.967,106.381 175.983,100.764 C182.398,91.787 191.374,84.704 201.396,80.157 C205.893,78.115 210.632,76.671 215.456,75.65 C214.25,95.516 205.968,115.663 188.702,126.738 C182.835,130.499 175.844,132.377 168.91,131.474 C167.726,127.909 167.338,123.953 167.583,120.221 z M266.765,222.637 C264.691,193.659 249.016,165.108 222.486,151.81 C215.762,148.437 208.554,145.982 201.143,144.666 C197.475,144.011 193.75,143.577 190.025,143.424 C187.065,143.307 184.02,143.588 181.096,143.008 C178.313,142.456 176.022,141.282 174.155,139.681 C189.759,138.877 199.972,127.776 208.401,114.595 C216.637,101.713 221.624,87.156 221.681,71.986 C221.688,69.14 221.074,66.595 218.558,66.976 C196.71,70.285 176.616,82.754 165.58,102.162 C162.005,108.445 159.511,115.219 159.493,122.512 C159.49,124.533 159.653,126.578 159.977,128.599 C154.537,125.604 151.165,120.676 149.254,114.642 C147.824,110.113 147.155,105.349 145.458,100.906 C141.046,89.34 130.558,84.423 118.725,83.509 C113.581,83.11 122.859,92.619 127.975,93.014 C138.058,93.793 138.754,97.511 141.443,107.401 C143.333,114.357 142,120.865 146.244,126.884 C150.023,132.242 155.537,135.956 161.727,137.995 C162.193,138.148 162.656,138.28 163.122,138.411 C165.047,142.118 167.779,145.367 171.426,147.7 C175.83,150.515 180.968,151.34 186.101,151.379 C193.448,151.436 200.585,152.315 207.64,154.453 C221.497,158.655 233.704,167.175 242.452,178.72 C259.223,200.849 263.065,230.595 254.338,256.694 C244.989,284.643 223.343,305.832 197.497,318.992 C190.363,322.623 182.992,325.754 175.535,328.655 C171.952,330.048 168.348,331.393 164.741,332.719 C162.08,333.697 159.568,335.29 156.878,334.578 C149.169,332.54 141.431,328.934 134.07,325.881 C126.901,322.911 119.85,319.616 113.086,315.816 C88.108,301.789 67.985,279.059 60.489,251.041 C53.438,224.668 59.365,194.723 77.822,174.223 C95.835,154.215 125.343,146.043 150.933,154.955 C174.806,163.269 189.019,177.041 189.033,199.813 C189.047,222.759 192.457,213.368 194.566,208.667 C205.396,184.542 196.01,181.147 177.605,162.525 C157.892,142.584 126.403,138.664 100.905,148.768 C73.93,159.452 55.743,184.672 50.947,212.956 C45.991,242.188 55.551,271.334 74.183,294.004 C83.828,305.741 95.821,315.31 109.041,322.732 C116.416,326.875 124.126,330.375 131.939,333.606 C139.563,336.759 147.447,340.271 155.384,342.533 C157.832,343.23 160.045,342.936 162.414,342.07 C166.452,340.602 170.483,339.124 174.5,337.597 C182.412,334.584 190.275,331.383 197.909,327.704 C211.962,320.936 225.08,312.303 236.002,301.093 C256.149,280.41 268.854,251.811 266.765,222.637" fill="#2F2118" id="path28"/>
  </g>
  <g id="Layer_2" transform="translate(-49.65, -66.938)">
    <g>
      <path d="M353.914,145.441 L383.215,145.441 Q391.126,145.441 397.572,147.073 Q404.018,148.704 408.633,152.039 Q413.248,155.374 415.739,160.412 Q418.229,165.449 418.229,172.261 Q418.229,179.072 415.666,184.109 Q413.102,189.147 408.487,192.482 Q403.872,195.817 397.352,197.519 Q390.833,199.222 382.922,199.222 L364.462,199.222 L364.462,245.909 L353.914,245.909 z M364.462,190.566 L382.336,190.566 Q394.789,190.566 401.235,185.883 Q407.681,181.2 407.681,172.261 Q407.681,162.895 401.015,158.567 Q394.349,154.239 382.336,154.239 L364.462,154.239 z" fill="#2F2218"/>
      <path d="M353.914,145.441 L383.215,145.441 Q391.126,145.441 397.572,147.073 Q404.018,148.704 408.633,152.039 Q413.248,155.374 415.739,160.412 Q418.229,165.449 418.229,172.261 Q418.229,179.072 415.666,184.109 Q413.102,189.147 408.487,192.482 Q403.872,195.817 397.352,197.519 Q390.833,199.222 382.922,199.222 L364.462,199.222 L364.462,245.909 L353.914,245.909 z M364.462,190.566 L382.336,190.566 Q394.789,190.566 401.235,185.883 Q407.681,181.2 407.681,172.261 Q407.681,162.895 401.015,158.567 Q394.349,154.239 382.336,154.239 L364.462,154.239 z" fill-opacity="0" stroke="#000000" stroke-width="3"/>
    </g>
    <g>
      <path d="M482.731,236.827 L538.257,236.827 L538.257,245.909 L472.183,245.909 L472.183,145.441 L536.499,145.441 L536.499,154.523 L482.731,154.523 L482.731,189.147 L532.982,189.147 L532.982,198.087 L482.731,198.087 z" fill="#2F2218"/>
      <path d="M482.731,236.827 L538.257,236.827 L538.257,245.909 L472.183,245.909 L472.183,145.441 L536.499,145.441 L536.499,154.523 L482.731,154.523 L482.731,189.147 L532.982,189.147 L532.982,198.087 L482.731,198.087 z" fill-opacity="0" stroke="#000000" stroke-width="3"/>
    </g>
    <g>
      <path d="M597.905,245.909 L586.331,245.909 L631.161,145.441 L641.416,145.441 L685.954,245.909 L674.233,245.909 L662.806,219.515 L609.185,219.515 z M613.141,210.149 L658.85,210.149 L635.996,156.793 z" fill="#2F2218"/>
      <path d="M597.905,245.909 L586.331,245.909 L631.161,145.441 L641.416,145.441 L685.954,245.909 L674.233,245.909 L662.806,219.515 L609.185,219.515 z M613.141,210.149 L658.85,210.149 L635.996,156.793 z" fill-opacity="0" stroke="#000000" stroke-width="3"/>
    </g>
    <g>
      <path d="M820.563,229.732 Q817.926,233.563 814.19,236.969 Q810.454,240.374 805.546,242.929 Q800.638,245.483 794.705,246.973 Q788.771,248.463 781.739,248.463 Q770.019,248.463 760.056,244.49 Q750.094,240.516 742.915,233.492 Q735.737,226.468 731.708,216.818 Q727.679,207.169 727.679,195.675 Q727.679,184.18 731.781,174.531 Q735.883,164.882 743.135,157.857 Q750.387,150.833 760.276,146.86 Q770.165,142.886 781.739,142.886 Q787.453,142.886 792.947,144.022 Q798.441,145.157 803.275,147.214 Q808.11,149.272 812.066,152.181 Q816.021,155.09 818.658,158.78 L809.868,165.023 Q808.257,162.611 805.546,160.199 Q802.836,157.786 799.173,155.942 Q795.511,154.097 791.189,152.962 Q786.867,151.826 781.886,151.826 Q771.777,151.826 763.792,155.374 Q755.808,158.922 750.241,164.952 Q744.674,170.983 741.743,178.93 Q738.813,186.877 738.813,195.675 Q738.813,204.473 741.817,212.419 Q744.82,220.366 750.387,226.397 Q755.954,232.428 763.939,235.975 Q771.923,239.523 781.886,239.523 Q790.822,239.523 798.88,235.975 Q806.938,232.428 812.359,224.623 z" fill="#2F2218"/>
      <path d="M820.563,229.732 Q817.926,233.563 814.19,236.969 Q810.454,240.374 805.546,242.929 Q800.638,245.483 794.705,246.973 Q788.771,248.463 781.739,248.463 Q770.019,248.463 760.056,244.49 Q750.094,240.516 742.915,233.492 Q735.737,226.468 731.708,216.818 Q727.679,207.169 727.679,195.675 Q727.679,184.18 731.781,174.531 Q735.883,164.882 743.135,157.857 Q750.387,150.833 760.276,146.86 Q770.165,142.886 781.739,142.886 Q787.453,142.886 792.947,144.022 Q798.441,145.157 803.275,147.214 Q808.11,149.272 812.066,152.181 Q816.021,155.09 818.658,158.78 L809.868,165.023 Q808.257,162.611 805.546,160.199 Q802.836,157.786 799.173,155.942 Q795.511,154.097 791.189,152.962 Q786.867,151.826 781.886,151.826 Q771.777,151.826 763.792,155.374 Q755.808,158.922 750.241,164.952 Q744.674,170.983 741.743,178.93 Q738.813,186.877 738.813,195.675 Q738.813,204.473 741.817,212.419 Q744.82,220.366 750.387,226.397 Q755.954,232.428 763.939,235.975 Q771.923,239.523 781.886,239.523 Q790.822,239.523 798.88,235.975 Q806.938,232.428 812.359,224.623 z" fill-opacity="0" stroke="#000000" stroke-width="3"/>
    </g>
    <g>
      <path d="M864.203,145.441 L874.751,145.441 L874.751,189.005 L931.302,189.005 L931.302,145.441 L941.85,145.441 L941.85,245.909 L931.302,245.909 L931.302,198.371 L874.751,198.371 L874.751,245.909 L864.203,245.909 z" fill="#2F2218"/>
      <path d="M864.203,145.441 L874.751,145.441 L874.751,189.005 L931.302,189.005 L931.302,145.441 L941.85,145.441 L941.85,245.909 L931.302,245.909 L931.302,198.371 L874.751,198.371 L874.751,245.909 L864.203,245.909 z" fill-opacity="0" stroke="#000000" stroke-width="3"/>
    </g>
    <path d="M489.721,330.949 Q489.898,334.106 491.211,336.076 Q493.712,339.764 500.027,339.764 Q502.856,339.764 505.179,338.956 Q509.676,337.39 509.676,333.348 Q509.676,330.317 507.781,329.029 Q505.861,327.766 501.77,326.831 L496.743,325.695 Q491.817,324.583 489.771,323.245 Q486.235,320.921 486.235,316.298 Q486.235,311.297 489.696,308.089 Q493.156,304.881 499.496,304.881 Q505.331,304.881 509.41,307.698 Q513.49,310.514 513.49,316.702 L508.766,316.702 Q508.387,313.722 507.15,312.131 Q504.851,309.226 499.345,309.226 Q494.899,309.226 492.954,311.095 Q491.009,312.964 491.009,315.439 Q491.009,318.167 493.282,319.43 Q494.773,320.239 500.027,321.451 L505.23,322.638 Q508.994,323.497 511.04,324.987 Q514.576,327.589 514.576,332.54 Q514.576,338.703 510.092,341.355 Q505.609,344.008 499.673,344.008 Q492.752,344.008 488.837,340.471 Q484.922,336.96 484.997,330.949 z" fill="#2F2218"/>
    <path d="M569.498,305.816 L569.498,310.236 L556.994,310.236 L556.994,342.921 L551.892,342.921 L551.892,310.236 L539.389,310.236 L539.389,305.816 z" fill="#2F2218"/>
    <path d="M601.105,305.816 L601.105,328.751 Q601.105,332.793 602.621,335.47 Q604.869,339.511 610.198,339.511 Q616.589,339.511 618.888,335.142 Q620.125,332.767 620.125,328.751 L620.125,305.816 L625.228,305.816 L625.228,326.655 Q625.228,333.5 623.384,337.188 Q619.999,343.907 610.603,343.907 Q601.206,343.907 597.847,337.188 Q596.003,333.5 596.003,326.655 L596.003,305.816 z" fill="#2F2218"/>
    <path d="M668.808,338.627 Q671.359,338.627 673.001,338.097 Q675.931,337.112 677.8,334.308 Q679.291,332.06 679.947,328.549 Q680.326,326.452 680.326,324.659 Q680.326,317.763 677.586,313.949 Q674.845,310.135 668.758,310.135 L659.841,310.135 L659.841,338.627 z M654.789,305.816 L669.818,305.816 Q677.472,305.816 681.69,311.246 Q685.454,316.147 685.454,323.8 Q685.454,329.711 683.231,334.485 Q679.316,342.921 669.768,342.921 L654.789,342.921 z" fill="#2F2218"/>
    <path d="M714.611,305.816 L719.688,305.816 L719.688,342.921 L714.611,342.921 z" fill="#2F2218"/>
    <path d="M765.416,304.805 Q775.242,304.805 779.965,311.12 Q783.653,316.046 783.653,323.724 Q783.653,332.035 779.435,337.541 Q774.484,344.008 765.315,344.008 Q756.752,344.008 751.852,338.35 Q747.482,332.894 747.482,324.558 Q747.482,317.031 751.22,311.676 Q756.019,304.805 765.416,304.805 z M765.921,339.511 Q772.564,339.511 775.532,334.75 Q778.5,329.989 778.5,323.8 Q778.5,317.258 775.077,313.267 Q771.655,309.276 765.719,309.276 Q759.96,309.276 756.322,313.229 Q752.685,317.182 752.685,324.886 Q752.685,331.05 755.805,335.281 Q758.924,339.511 765.921,339.511 z" fill="#2F2218"/>
  </g>
</svg>
